<?xml version="1.0" encoding="UTF-8"?>
<svg id="_レイヤー_1" xmlns="http://www.w3.org/2000/svg" version="1.1" viewBox="0 0 246 135.5">
  <!-- Generator: Adobe Illustrator 29.6.1, SVG Export Plug-In . SVG Version: 2.1.1 Build 9)  -->
  <defs>
    <style>
      .st0 {
        stroke-width: .5px;
      }

      .st0, .st1 {
        fill: none;
        stroke: #575757;
        stroke-linecap: round;
        stroke-linejoin: round;
      }

      .st2 {
        fill: #f7f1ea;
      }
    </style>
  </defs>
  <path d="M120.5,124.89l-23.74-26.05c-.22-.36-.32-.75-.28-1.17.06-.62,7.1-8.11,8.22-9.56,5.64-7.26,10.88-16.13,13.8-24.75h-22.25c-2.39,3.53-4.33,7.4-6.84,10.85-1.15,1.57-5.51,7.2-6.91,7.9-1.01.5-3.41-2.31-4.25-3.18-4.66-4.83-8.77-10.34-13.26-15.32,0-1.07,7.61-6.07,9.03-7.29,10.96-9.42,17.69-21.85,11.58-36.08-10.21-23.79-53.95-23.13-64.68,0-6.68,14.41-.56,28.55,9.34,39.71l.21,1.15c-11.96,6.87-27.06,16.9-28.46,31.67-2.51,26.32,23.18,37.48,46.61,34.15,11.21-1.59,20.31-6.97,29.13-13.51,2-.01,9.9,11.67,13,12.66h29l.75-1.21v.03Z"/>
  <path class="st0" d="M154.43,126.95"/>
  <path d="M231.79,92.52c-8.48-3.11-4.83,6.43-7.49,10.78-1.05.84-4.25.3-5.93.55-5.07.77-10.61,5.3-11.33,10.38-1.8,12.76,9.2,15.69,19.84,12.72l4.91-34.43Z"/>
  <path d="M175.56,104.43c-7.76-2.85-19.15-.17-22.09,8.27-1.65,4.76-1.45,10.43,3.02,13.65,4.77,3.43,9.89-1.09,10.45-.68.04,2.09,5.47,1.88,5.97.58l2.66-21.82h-.01Z"/>
  <path d="M195.23,103.7c-3.28.23-4.31,2.5-7.23,2.94,2.03-3.41-4.33-3.79-5.17-1.83l-3.12,21.79,5.22.41,2.45-14.4c1.39-2.04,6.4-6.87,8.66-3.8,1.88,2.55-1.55,14.64-1.54,18.27l5.45-.05c.39-6.34,7.33-24.16-4.72-23.32h0Z"/>
  <path class="st1" d="M196.04,108.51"/>
  <path d="M235.87,120.84c-4.02.81-2.66,7.69,1.26,7.12,5.3-.76,3.83-8.14-1.26-7.12Z"/>
  <path class="st2" d="M64.5,98.63l-21.25-23.45c-10.76,5.27-25.16,19.26-12.02,30.02,8.83,7.23,21.19,2.9,29.42-3.02.99-.71,3.85-2.46,3.85-3.55Z"/>
  <path class="st2" d="M63.49,41.24c8.23-10.23.63-22.4-12.61-20.53-4.1.58-8.78,4.04-9.66,8.11-1.03,4.81,1.82,10.2,4.56,14.1.92,1.3,5.54,6.97,6.88,6.74,1.58-.27,9.57-6.86,10.83-8.42Z"/>
  <path class="st2" d="M97.37,110.16c-6.55,1.09-5.78,11.57,1.3,11.39,8.27-.21,7.68-12.89-1.3-11.39Z"/>
  <path class="st2" d="M223.53,108.33c-7.33-2.33-14.65,7.92-9.36,13.23,1.91,1.92,7.34,3.53,8.22-.18.62-2.62,1.43-8.91,1.58-11.64.03-.55.1-1.05-.45-1.41h0Z"/>
  <path class="st2" d="M169.94,108.87c-.28-1.15-3.58-.86-4.58-.65-7.47,1.51-9.52,14.32-3.49,15.37,7.54,1.31,6.94-10.34,8.07-14.72Z"/>
</svg>